<mxfile host="app.diagrams.net" modified="2024-04-05T04:02:22.401Z" agent="Mozilla/5.0 (X11; Ubuntu; Linux x86_64; rv:123.0) Gecko/20100101 Firefox/123.0" etag="KpBTNjemxtFavZgdaeKc" version="24.2.2" type="device">
  <diagram name="Ejercicio3b" id="Ylp6VlI42n3DtUfvS2L4">
    <mxGraphModel dx="2501" dy="1964" grid="1" gridSize="10" guides="1" tooltips="1" connect="1" arrows="1" fold="1" page="1" pageScale="1" pageWidth="827" pageHeight="1169" math="0" shadow="0">
      <root>
        <mxCell id="0" />
        <mxCell id="1" parent="0" />
        <mxCell id="jD9WdKMEJikVOpJDd1EK-1" value="Municipio" style="whiteSpace=wrap;html=1;align=center;" parent="1" vertex="1">
          <mxGeometry x="870" y="574" width="100" height="40" as="geometry" />
        </mxCell>
        <mxCell id="jD9WdKMEJikVOpJDd1EK-2" value="Votante" style="whiteSpace=wrap;html=1;align=center;" parent="1" vertex="1">
          <mxGeometry x="260" y="50" width="100" height="40" as="geometry" />
        </mxCell>
        <mxCell id="jD9WdKMEJikVOpJDd1EK-3" value="Candidato&lt;span style=&quot;color: rgba(0, 0, 0, 0); font-family: monospace; font-size: 0px; text-align: start; text-wrap: nowrap;&quot;&gt;%3CmxGraphModel%3E%3Croot%3E%3CmxCell%20id%3D%220%22%2F%3E%3CmxCell%20id%3D%221%22%20parent%3D%220%22%2F%3E%3CmxCell%20id%3D%222%22%20value%3D%22Municipio%22%20style%3D%22whiteSpace%3Dwrap%3Bhtml%3D1%3Balign%3Dcenter%3B%22%20vertex%3D%221%22%20parent%3D%221%22%3E%3CmxGeometry%20x%3D%22360%22%20y%3D%22270%22%20width%3D%22100%22%20height%3D%2240%22%20as%3D%22geometry%22%2F%3E%3C%2FmxCell%3E%3C%2Froot%3E%3C%2FmxGraphModel%3E&lt;/span&gt;&lt;span style=&quot;color: rgba(0, 0, 0, 0); font-family: monospace; font-size: 0px; text-align: start; text-wrap: nowrap;&quot;&gt;%3CmxGraphModel%3E%3Croot%3E%3CmxCell%20id%3D%220%22%2F%3E%3CmxCell%20id%3D%221%22%20parent%3D%220%22%2F%3E%3CmxCell%20id%3D%222%22%20value%3D%22Municipio%22%20style%3D%22whiteSpace%3Dwrap%3Bhtml%3D1%3Balign%3Dcenter%3B%22%20vertex%3D%221%22%20parent%3D%221%22%3E%3CmxGeometry%20x%3D%22360%22%20y%3D%22270%22%20width%3D%22100%22%20height%3D%2240%22%20as%3D%22geometry%22%2F%3E%3C%2FmxCell%3E%3C%2Froot%3E%3C%2FmxGraphModel%3E&lt;/span&gt;" style="whiteSpace=wrap;html=1;align=center;" parent="1" vertex="1">
          <mxGeometry x="150" y="230" width="100" height="40" as="geometry" />
        </mxCell>
        <mxCell id="jD9WdKMEJikVOpJDd1EK-4" value="Casilla" style="whiteSpace=wrap;html=1;align=center;" parent="1" vertex="1">
          <mxGeometry x="870" width="100" height="40" as="geometry" />
        </mxCell>
        <mxCell id="jD9WdKMEJikVOpJDd1EK-5" value="Lista" style="whiteSpace=wrap;html=1;align=center;" parent="1" vertex="1">
          <mxGeometry x="-130" y="280" width="100" height="40" as="geometry" />
        </mxCell>
        <mxCell id="jD9WdKMEJikVOpJDd1EK-6" value="Partido_politico" style="whiteSpace=wrap;html=1;align=center;" parent="1" vertex="1">
          <mxGeometry x="-130" y="470" width="100" height="40" as="geometry" />
        </mxCell>
        <mxCell id="jD9WdKMEJikVOpJDd1EK-7" value="Sede_local" style="whiteSpace=wrap;html=1;align=center;" parent="1" vertex="1">
          <mxGeometry x="330" y="470" width="100" height="40" as="geometry" />
        </mxCell>
        <mxCell id="jD9WdKMEJikVOpJDd1EK-8" value="d" style="strokeWidth=2;html=1;shape=mxgraph.flowchart.merge_or_storage;whiteSpace=wrap;" parent="1" vertex="1">
          <mxGeometry x="270" y="140" width="80" height="40" as="geometry" />
        </mxCell>
        <mxCell id="jD9WdKMEJikVOpJDd1EK-9" value="Funcionario" style="whiteSpace=wrap;html=1;align=center;" parent="1" vertex="1">
          <mxGeometry x="350" y="230" width="100" height="40" as="geometry" />
        </mxCell>
        <mxCell id="jD9WdKMEJikVOpJDd1EK-10" value="" style="endArrow=none;html=1;rounded=0;exitX=0.5;exitY=1;exitDx=0;exitDy=0;entryX=0.5;entryY=0;entryDx=0;entryDy=0;entryPerimeter=0;" parent="1" source="jD9WdKMEJikVOpJDd1EK-2" target="jD9WdKMEJikVOpJDd1EK-8" edge="1">
          <mxGeometry relative="1" as="geometry">
            <mxPoint x="330" y="290" as="sourcePoint" />
            <mxPoint x="490" y="290" as="targetPoint" />
          </mxGeometry>
        </mxCell>
        <mxCell id="jD9WdKMEJikVOpJDd1EK-11" value="" style="endArrow=none;html=1;rounded=0;exitX=0.76;exitY=0.585;exitDx=0;exitDy=0;exitPerimeter=0;entryX=0.5;entryY=0;entryDx=0;entryDy=0;" parent="1" source="jD9WdKMEJikVOpJDd1EK-8" target="jD9WdKMEJikVOpJDd1EK-9" edge="1">
          <mxGeometry relative="1" as="geometry">
            <mxPoint x="330" y="290" as="sourcePoint" />
            <mxPoint x="490" y="290" as="targetPoint" />
          </mxGeometry>
        </mxCell>
        <mxCell id="jD9WdKMEJikVOpJDd1EK-12" value="" style="endArrow=none;html=1;rounded=0;exitX=0.18;exitY=0.465;exitDx=0;exitDy=0;exitPerimeter=0;entryX=0.5;entryY=0;entryDx=0;entryDy=0;" parent="1" source="jD9WdKMEJikVOpJDd1EK-8" target="jD9WdKMEJikVOpJDd1EK-3" edge="1">
          <mxGeometry relative="1" as="geometry">
            <mxPoint x="341" y="173" as="sourcePoint" />
            <mxPoint x="410" y="240" as="targetPoint" />
          </mxGeometry>
        </mxCell>
        <mxCell id="jD9WdKMEJikVOpJDd1EK-13" value="Distrito" style="whiteSpace=wrap;html=1;align=center;" parent="1" vertex="1">
          <mxGeometry x="871" y="290" width="100" height="40" as="geometry" />
        </mxCell>
        <mxCell id="jD9WdKMEJikVOpJDd1EK-14" value="Clave_elec" style="ellipse;whiteSpace=wrap;html=1;align=center;fontStyle=4;" parent="1" vertex="1">
          <mxGeometry x="120" y="40" width="100" height="40" as="geometry" />
        </mxCell>
        <mxCell id="jD9WdKMEJikVOpJDd1EK-15" value="Fecha_nac" style="ellipse;whiteSpace=wrap;html=1;align=center;" parent="1" vertex="1">
          <mxGeometry x="220" y="-20" width="100" height="40" as="geometry" />
        </mxCell>
        <mxCell id="jD9WdKMEJikVOpJDd1EK-16" value="Edad" style="ellipse;whiteSpace=wrap;html=1;align=center;dashed=1;" parent="1" vertex="1">
          <mxGeometry x="350" y="-20" width="100" height="40" as="geometry" />
        </mxCell>
        <mxCell id="jD9WdKMEJikVOpJDd1EK-17" value="Asistencia" style="ellipse;whiteSpace=wrap;html=1;align=center;" parent="1" vertex="1">
          <mxGeometry x="390" y="50" width="100" height="40" as="geometry" />
        </mxCell>
        <mxCell id="jD9WdKMEJikVOpJDd1EK-18" value="NombreC_vot" style="ellipse;whiteSpace=wrap;html=1;align=center;" parent="1" vertex="1">
          <mxGeometry x="380" y="120" width="100" height="40" as="geometry" />
        </mxCell>
        <mxCell id="jD9WdKMEJikVOpJDd1EK-19" value="Nombre_vot" style="ellipse;whiteSpace=wrap;html=1;align=center;" parent="1" vertex="1">
          <mxGeometry x="490" y="90" width="100" height="30" as="geometry" />
        </mxCell>
        <mxCell id="jD9WdKMEJikVOpJDd1EK-20" value="A_materno_vot" style="ellipse;whiteSpace=wrap;html=1;align=center;" parent="1" vertex="1">
          <mxGeometry x="500" y="130" width="100" height="30" as="geometry" />
        </mxCell>
        <mxCell id="jD9WdKMEJikVOpJDd1EK-21" value="A_paterno_vot" style="ellipse;whiteSpace=wrap;html=1;align=center;" parent="1" vertex="1">
          <mxGeometry x="500" y="170" width="100" height="30" as="geometry" />
        </mxCell>
        <mxCell id="jD9WdKMEJikVOpJDd1EK-22" value="" style="endArrow=none;html=1;rounded=0;exitX=1;exitY=0.5;exitDx=0;exitDy=0;entryX=0;entryY=0.5;entryDx=0;entryDy=0;" parent="1" source="jD9WdKMEJikVOpJDd1EK-14" target="jD9WdKMEJikVOpJDd1EK-2" edge="1">
          <mxGeometry relative="1" as="geometry">
            <mxPoint x="330" y="200" as="sourcePoint" />
            <mxPoint x="490" y="200" as="targetPoint" />
          </mxGeometry>
        </mxCell>
        <mxCell id="jD9WdKMEJikVOpJDd1EK-23" value="" style="endArrow=none;html=1;rounded=0;exitX=0.5;exitY=1;exitDx=0;exitDy=0;entryX=0.25;entryY=0;entryDx=0;entryDy=0;" parent="1" source="jD9WdKMEJikVOpJDd1EK-15" target="jD9WdKMEJikVOpJDd1EK-2" edge="1">
          <mxGeometry relative="1" as="geometry">
            <mxPoint x="330" y="200" as="sourcePoint" />
            <mxPoint x="490" y="200" as="targetPoint" />
          </mxGeometry>
        </mxCell>
        <mxCell id="jD9WdKMEJikVOpJDd1EK-24" value="" style="endArrow=none;html=1;rounded=0;exitX=0;exitY=1;exitDx=0;exitDy=0;entryX=0.75;entryY=0;entryDx=0;entryDy=0;" parent="1" source="jD9WdKMEJikVOpJDd1EK-16" target="jD9WdKMEJikVOpJDd1EK-2" edge="1">
          <mxGeometry relative="1" as="geometry">
            <mxPoint x="330" y="200" as="sourcePoint" />
            <mxPoint x="490" y="200" as="targetPoint" />
          </mxGeometry>
        </mxCell>
        <mxCell id="jD9WdKMEJikVOpJDd1EK-25" value="" style="endArrow=none;html=1;rounded=0;exitX=1;exitY=0.5;exitDx=0;exitDy=0;entryX=0;entryY=0.5;entryDx=0;entryDy=0;" parent="1" source="jD9WdKMEJikVOpJDd1EK-2" target="jD9WdKMEJikVOpJDd1EK-17" edge="1">
          <mxGeometry relative="1" as="geometry">
            <mxPoint x="330" y="200" as="sourcePoint" />
            <mxPoint x="490" y="200" as="targetPoint" />
          </mxGeometry>
        </mxCell>
        <mxCell id="jD9WdKMEJikVOpJDd1EK-26" value="" style="endArrow=none;html=1;rounded=0;exitX=0.86;exitY=1.11;exitDx=0;exitDy=0;exitPerimeter=0;entryX=0;entryY=0;entryDx=0;entryDy=0;" parent="1" source="jD9WdKMEJikVOpJDd1EK-2" target="jD9WdKMEJikVOpJDd1EK-18" edge="1">
          <mxGeometry relative="1" as="geometry">
            <mxPoint x="330" y="200" as="sourcePoint" />
            <mxPoint x="490" y="200" as="targetPoint" />
          </mxGeometry>
        </mxCell>
        <mxCell id="jD9WdKMEJikVOpJDd1EK-27" value="" style="endArrow=none;html=1;rounded=0;exitX=0;exitY=0.5;exitDx=0;exitDy=0;entryX=1;entryY=0;entryDx=0;entryDy=0;" parent="1" source="jD9WdKMEJikVOpJDd1EK-19" target="jD9WdKMEJikVOpJDd1EK-18" edge="1">
          <mxGeometry relative="1" as="geometry">
            <mxPoint x="330" y="200" as="sourcePoint" />
            <mxPoint x="490" y="200" as="targetPoint" />
          </mxGeometry>
        </mxCell>
        <mxCell id="jD9WdKMEJikVOpJDd1EK-28" value="" style="endArrow=none;html=1;rounded=0;exitX=1;exitY=0.5;exitDx=0;exitDy=0;entryX=0;entryY=0.5;entryDx=0;entryDy=0;" parent="1" source="jD9WdKMEJikVOpJDd1EK-18" target="jD9WdKMEJikVOpJDd1EK-20" edge="1">
          <mxGeometry relative="1" as="geometry">
            <mxPoint x="330" y="200" as="sourcePoint" />
            <mxPoint x="490" y="200" as="targetPoint" />
          </mxGeometry>
        </mxCell>
        <mxCell id="jD9WdKMEJikVOpJDd1EK-29" value="" style="endArrow=none;html=1;rounded=0;exitX=1;exitY=1;exitDx=0;exitDy=0;entryX=0;entryY=0.5;entryDx=0;entryDy=0;" parent="1" source="jD9WdKMEJikVOpJDd1EK-18" target="jD9WdKMEJikVOpJDd1EK-21" edge="1">
          <mxGeometry relative="1" as="geometry">
            <mxPoint x="330" y="200" as="sourcePoint" />
            <mxPoint x="490" y="200" as="targetPoint" />
          </mxGeometry>
        </mxCell>
        <mxCell id="jD9WdKMEJikVOpJDd1EK-30" value="Direccion" style="ellipse;whiteSpace=wrap;html=1;align=center;" parent="1" vertex="1">
          <mxGeometry x="160" y="100" width="100" height="40" as="geometry" />
        </mxCell>
        <mxCell id="jD9WdKMEJikVOpJDd1EK-31" value="NumeroExterior" style="ellipse;whiteSpace=wrap;html=1;align=center;" parent="1" vertex="1">
          <mxGeometry x="-30" y="94" width="100" height="26" as="geometry" />
        </mxCell>
        <mxCell id="jD9WdKMEJikVOpJDd1EK-32" value="Calle" style="ellipse;whiteSpace=wrap;html=1;align=center;" parent="1" vertex="1">
          <mxGeometry x="30" y="140" width="100" height="24" as="geometry" />
        </mxCell>
        <mxCell id="jD9WdKMEJikVOpJDd1EK-33" value="NumeroInterior" style="ellipse;whiteSpace=wrap;html=1;align=center;" parent="1" vertex="1">
          <mxGeometry x="-90" y="130" width="100" height="20" as="geometry" />
        </mxCell>
        <mxCell id="jD9WdKMEJikVOpJDd1EK-34" value="Colonia" style="ellipse;whiteSpace=wrap;html=1;align=center;" parent="1" vertex="1">
          <mxGeometry x="30" y="64" width="100" height="26" as="geometry" />
        </mxCell>
        <mxCell id="jD9WdKMEJikVOpJDd1EK-35" value="Estado" style="ellipse;whiteSpace=wrap;html=1;align=center;" parent="1" vertex="1">
          <mxGeometry x="100" y="169" width="100" height="21" as="geometry" />
        </mxCell>
        <mxCell id="jD9WdKMEJikVOpJDd1EK-36" value="" style="endArrow=none;html=1;rounded=0;entryX=0.5;entryY=1;entryDx=0;entryDy=0;exitX=0;exitY=0;exitDx=0;exitDy=0;" parent="1" source="jD9WdKMEJikVOpJDd1EK-30" target="jD9WdKMEJikVOpJDd1EK-34" edge="1">
          <mxGeometry width="50" height="50" relative="1" as="geometry">
            <mxPoint x="-105" y="224" as="sourcePoint" />
            <mxPoint x="-70" y="139" as="targetPoint" />
          </mxGeometry>
        </mxCell>
        <mxCell id="jD9WdKMEJikVOpJDd1EK-37" value="" style="endArrow=none;html=1;rounded=0;exitX=0;exitY=0.5;exitDx=0;exitDy=0;entryX=1;entryY=1;entryDx=0;entryDy=0;" parent="1" source="jD9WdKMEJikVOpJDd1EK-30" target="jD9WdKMEJikVOpJDd1EK-31" edge="1">
          <mxGeometry width="50" height="50" relative="1" as="geometry">
            <mxPoint x="-123" y="225" as="sourcePoint" />
            <mxPoint x="-65" y="159" as="targetPoint" />
          </mxGeometry>
        </mxCell>
        <mxCell id="jD9WdKMEJikVOpJDd1EK-38" value="" style="endArrow=none;html=1;rounded=0;entryX=0.93;entryY=0.233;entryDx=0;entryDy=0;exitX=0;exitY=1;exitDx=0;exitDy=0;entryPerimeter=0;" parent="1" source="jD9WdKMEJikVOpJDd1EK-30" target="jD9WdKMEJikVOpJDd1EK-32" edge="1">
          <mxGeometry width="50" height="50" relative="1" as="geometry">
            <mxPoint x="-80" y="226" as="sourcePoint" />
            <mxPoint x="5" y="199" as="targetPoint" />
          </mxGeometry>
        </mxCell>
        <mxCell id="jD9WdKMEJikVOpJDd1EK-39" value="" style="endArrow=none;html=1;rounded=0;exitX=1;exitY=0.5;exitDx=0;exitDy=0;entryX=0.03;entryY=0.68;entryDx=0;entryDy=0;entryPerimeter=0;" parent="1" source="jD9WdKMEJikVOpJDd1EK-33" target="jD9WdKMEJikVOpJDd1EK-30" edge="1">
          <mxGeometry relative="1" as="geometry">
            <mxPoint x="210" y="200" as="sourcePoint" />
            <mxPoint x="370" y="200" as="targetPoint" />
          </mxGeometry>
        </mxCell>
        <mxCell id="jD9WdKMEJikVOpJDd1EK-42" value="" style="endArrow=none;html=1;rounded=0;exitX=0.574;exitY=-0.086;exitDx=0;exitDy=0;exitPerimeter=0;entryX=0.286;entryY=1.04;entryDx=0;entryDy=0;entryPerimeter=0;" parent="1" source="jD9WdKMEJikVOpJDd1EK-35" target="jD9WdKMEJikVOpJDd1EK-30" edge="1">
          <mxGeometry relative="1" as="geometry">
            <mxPoint x="190" y="170" as="sourcePoint" />
            <mxPoint x="350" y="170" as="targetPoint" />
          </mxGeometry>
        </mxCell>
        <mxCell id="jD9WdKMEJikVOpJDd1EK-43" value="Direccion_dist" style="ellipse;whiteSpace=wrap;html=1;align=center;" parent="1" vertex="1">
          <mxGeometry x="740" y="325" width="100" height="41" as="geometry" />
        </mxCell>
        <mxCell id="jD9WdKMEJikVOpJDd1EK-44" value="" style="endArrow=none;html=1;rounded=0;exitX=1;exitY=0.5;exitDx=0;exitDy=0;entryX=0;entryY=0.5;entryDx=0;entryDy=0;" parent="1" source="jD9WdKMEJikVOpJDd1EK-43" target="jD9WdKMEJikVOpJDd1EK-13" edge="1">
          <mxGeometry relative="1" as="geometry">
            <mxPoint x="1161" y="200" as="sourcePoint" />
            <mxPoint x="1321" y="200" as="targetPoint" />
          </mxGeometry>
        </mxCell>
        <mxCell id="jD9WdKMEJikVOpJDd1EK-46" value="ID_Distrito" style="ellipse;whiteSpace=wrap;html=1;align=center;fontStyle=4;" parent="1" vertex="1">
          <mxGeometry x="1021" y="289" width="129" height="40" as="geometry" />
        </mxCell>
        <mxCell id="jD9WdKMEJikVOpJDd1EK-47" value="" style="endArrow=none;html=1;rounded=0;exitX=1;exitY=0.5;exitDx=0;exitDy=0;entryX=0;entryY=0.5;entryDx=0;entryDy=0;" parent="1" target="jD9WdKMEJikVOpJDd1EK-46" edge="1">
          <mxGeometry relative="1" as="geometry">
            <mxPoint x="971" y="310" as="sourcePoint" />
            <mxPoint x="1021" y="315" as="targetPoint" />
          </mxGeometry>
        </mxCell>
        <mxCell id="jD9WdKMEJikVOpJDd1EK-48" value="" style="endArrow=none;html=1;rounded=0;exitX=0.25;exitY=1;exitDx=0;exitDy=0;" parent="1" source="jD9WdKMEJikVOpJDd1EK-3" edge="1">
          <mxGeometry relative="1" as="geometry">
            <mxPoint x="210" y="180" as="sourcePoint" />
            <mxPoint x="174.97518595104975" y="270.099256195801" as="targetPoint" />
          </mxGeometry>
        </mxCell>
        <mxCell id="jD9WdKMEJikVOpJDd1EK-50" value="Cargo" style="ellipse;whiteSpace=wrap;html=1;align=center;" parent="1" vertex="1">
          <mxGeometry x="120" y="300" width="100" height="40" as="geometry" />
        </mxCell>
        <mxCell id="jD9WdKMEJikVOpJDd1EK-51" value="" style="endArrow=none;html=1;rounded=0;exitX=0.25;exitY=1;exitDx=0;exitDy=0;entryX=0.5;entryY=0;entryDx=0;entryDy=0;" parent="1" source="jD9WdKMEJikVOpJDd1EK-3" target="jD9WdKMEJikVOpJDd1EK-50" edge="1">
          <mxGeometry relative="1" as="geometry">
            <mxPoint x="210" y="180" as="sourcePoint" />
            <mxPoint x="370" y="180" as="targetPoint" />
          </mxGeometry>
        </mxCell>
        <mxCell id="jD9WdKMEJikVOpJDd1EK-52" value="Conformar" style="shape=rhombus;perimeter=rhombusPerimeter;whiteSpace=wrap;html=1;align=center;" parent="1" vertex="1">
          <mxGeometry x="-140" y="360" width="120" height="60" as="geometry" />
        </mxCell>
        <mxCell id="jD9WdKMEJikVOpJDd1EK-53" value="Presentar" style="shape=rhombus;perimeter=rhombusPerimeter;whiteSpace=wrap;html=1;align=center;" parent="1" vertex="1">
          <mxGeometry x="-20" y="220" width="120" height="60" as="geometry" />
        </mxCell>
        <mxCell id="jD9WdKMEJikVOpJDd1EK-54" value="" style="endArrow=none;html=1;rounded=0;exitX=1;exitY=0.5;exitDx=0;exitDy=0;entryX=0;entryY=0.5;entryDx=0;entryDy=0;shape=link;" parent="1" source="jD9WdKMEJikVOpJDd1EK-53" target="jD9WdKMEJikVOpJDd1EK-3" edge="1">
          <mxGeometry relative="1" as="geometry">
            <mxPoint x="210" y="390" as="sourcePoint" />
            <mxPoint x="370" y="390" as="targetPoint" />
          </mxGeometry>
        </mxCell>
        <mxCell id="jD9WdKMEJikVOpJDd1EK-58" value="" style="endArrow=none;html=1;rounded=0;exitX=0;exitY=0.5;exitDx=0;exitDy=0;" parent="1" source="jD9WdKMEJikVOpJDd1EK-5" target="jD9WdKMEJikVOpJDd1EK-59" edge="1">
          <mxGeometry relative="1" as="geometry">
            <mxPoint x="210" y="390" as="sourcePoint" />
            <mxPoint x="-170" y="300" as="targetPoint" />
          </mxGeometry>
        </mxCell>
        <mxCell id="jD9WdKMEJikVOpJDd1EK-59" value="Num_unico" style="ellipse;whiteSpace=wrap;html=1;align=center;fontStyle=4;" parent="1" vertex="1">
          <mxGeometry x="-270" y="280" width="100" height="40" as="geometry" />
        </mxCell>
        <mxCell id="jD9WdKMEJikVOpJDd1EK-60" value="" style="endArrow=none;html=1;rounded=0;exitX=0;exitY=1;exitDx=0;exitDy=0;entryX=1;entryY=0;entryDx=0;entryDy=0;" parent="1" source="jD9WdKMEJikVOpJDd1EK-2" target="jD9WdKMEJikVOpJDd1EK-30" edge="1">
          <mxGeometry relative="1" as="geometry">
            <mxPoint x="120" y="310" as="sourcePoint" />
            <mxPoint x="280" y="310" as="targetPoint" />
          </mxGeometry>
        </mxCell>
        <mxCell id="jD9WdKMEJikVOpJDd1EK-61" value="NumeroExterior" style="ellipse;whiteSpace=wrap;html=1;align=center;" parent="1" vertex="1">
          <mxGeometry x="-470" y="470" width="100" height="26" as="geometry" />
        </mxCell>
        <mxCell id="jD9WdKMEJikVOpJDd1EK-62" value="Calle" style="ellipse;whiteSpace=wrap;html=1;align=center;" parent="1" vertex="1">
          <mxGeometry x="-410" y="516" width="100" height="24" as="geometry" />
        </mxCell>
        <mxCell id="jD9WdKMEJikVOpJDd1EK-63" value="NumeroInterior" style="ellipse;whiteSpace=wrap;html=1;align=center;" parent="1" vertex="1">
          <mxGeometry x="-530" y="506" width="100" height="20" as="geometry" />
        </mxCell>
        <mxCell id="jD9WdKMEJikVOpJDd1EK-64" value="Colonia" style="ellipse;whiteSpace=wrap;html=1;align=center;" parent="1" vertex="1">
          <mxGeometry x="-410" y="440" width="100" height="26" as="geometry" />
        </mxCell>
        <mxCell id="jD9WdKMEJikVOpJDd1EK-65" value="Estado" style="ellipse;whiteSpace=wrap;html=1;align=center;" parent="1" vertex="1">
          <mxGeometry x="-340" y="545" width="100" height="21" as="geometry" />
        </mxCell>
        <mxCell id="jD9WdKMEJikVOpJDd1EK-66" value="" style="endArrow=none;html=1;rounded=0;entryX=0.5;entryY=1;entryDx=0;entryDy=0;exitX=0;exitY=0;exitDx=0;exitDy=0;" parent="1" target="jD9WdKMEJikVOpJDd1EK-64" edge="1">
          <mxGeometry width="50" height="50" relative="1" as="geometry">
            <mxPoint x="-265" y="482" as="sourcePoint" />
            <mxPoint x="-510" y="515" as="targetPoint" />
          </mxGeometry>
        </mxCell>
        <mxCell id="jD9WdKMEJikVOpJDd1EK-67" value="" style="endArrow=none;html=1;rounded=0;exitX=0;exitY=0.5;exitDx=0;exitDy=0;entryX=1;entryY=1;entryDx=0;entryDy=0;" parent="1" target="jD9WdKMEJikVOpJDd1EK-61" edge="1">
          <mxGeometry width="50" height="50" relative="1" as="geometry">
            <mxPoint x="-280" y="496" as="sourcePoint" />
            <mxPoint x="-505" y="535" as="targetPoint" />
          </mxGeometry>
        </mxCell>
        <mxCell id="jD9WdKMEJikVOpJDd1EK-68" value="" style="endArrow=none;html=1;rounded=0;entryX=0.93;entryY=0.233;entryDx=0;entryDy=0;exitX=0;exitY=1;exitDx=0;exitDy=0;entryPerimeter=0;" parent="1" target="jD9WdKMEJikVOpJDd1EK-62" edge="1">
          <mxGeometry width="50" height="50" relative="1" as="geometry">
            <mxPoint x="-265" y="510" as="sourcePoint" />
            <mxPoint x="-435" y="575" as="targetPoint" />
          </mxGeometry>
        </mxCell>
        <mxCell id="jD9WdKMEJikVOpJDd1EK-69" value="" style="endArrow=none;html=1;rounded=0;exitX=1;exitY=0.5;exitDx=0;exitDy=0;entryX=0.03;entryY=0.68;entryDx=0;entryDy=0;entryPerimeter=0;" parent="1" source="jD9WdKMEJikVOpJDd1EK-63" edge="1">
          <mxGeometry relative="1" as="geometry">
            <mxPoint x="-230" y="576" as="sourcePoint" />
            <mxPoint x="-277" y="503" as="targetPoint" />
          </mxGeometry>
        </mxCell>
        <mxCell id="jD9WdKMEJikVOpJDd1EK-70" value="" style="endArrow=none;html=1;rounded=0;exitX=0.574;exitY=-0.086;exitDx=0;exitDy=0;exitPerimeter=0;entryX=0.286;entryY=1.04;entryDx=0;entryDy=0;entryPerimeter=0;" parent="1" source="jD9WdKMEJikVOpJDd1EK-65" edge="1">
          <mxGeometry relative="1" as="geometry">
            <mxPoint x="-250" y="546" as="sourcePoint" />
            <mxPoint x="-251" y="518" as="targetPoint" />
          </mxGeometry>
        </mxCell>
        <mxCell id="jD9WdKMEJikVOpJDd1EK-71" value="Direccion_principal" style="ellipse;whiteSpace=wrap;html=1;align=center;" parent="1" vertex="1">
          <mxGeometry x="-280" y="476" width="120" height="40" as="geometry" />
        </mxCell>
        <mxCell id="jD9WdKMEJikVOpJDd1EK-72" value="" style="endArrow=none;html=1;rounded=0;exitX=1;exitY=0.5;exitDx=0;exitDy=0;entryX=0;entryY=0.5;entryDx=0;entryDy=0;" parent="1" source="jD9WdKMEJikVOpJDd1EK-71" target="jD9WdKMEJikVOpJDd1EK-6" edge="1">
          <mxGeometry relative="1" as="geometry">
            <mxPoint x="-110" y="310" as="sourcePoint" />
            <mxPoint x="50" y="310" as="targetPoint" />
          </mxGeometry>
        </mxCell>
        <mxCell id="jD9WdKMEJikVOpJDd1EK-73" value="Nombre_part" style="ellipse;whiteSpace=wrap;html=1;align=center;fontStyle=4;" parent="1" vertex="1">
          <mxGeometry x="-190" y="535.5" width="100" height="40" as="geometry" />
        </mxCell>
        <mxCell id="jD9WdKMEJikVOpJDd1EK-75" value="Sigla" style="ellipse;whiteSpace=wrap;html=1;align=center;fontStyle=4;" parent="1" vertex="1">
          <mxGeometry x="-70" y="535.5" width="100" height="40" as="geometry" />
        </mxCell>
        <mxCell id="jD9WdKMEJikVOpJDd1EK-76" value="" style="endArrow=none;html=1;rounded=0;exitX=0.594;exitY=-0.007;exitDx=0;exitDy=0;exitPerimeter=0;entryX=0.25;entryY=1;entryDx=0;entryDy=0;" parent="1" source="jD9WdKMEJikVOpJDd1EK-73" target="jD9WdKMEJikVOpJDd1EK-6" edge="1">
          <mxGeometry relative="1" as="geometry">
            <mxPoint x="-110" y="410" as="sourcePoint" />
            <mxPoint x="50" y="410" as="targetPoint" />
          </mxGeometry>
        </mxCell>
        <mxCell id="jD9WdKMEJikVOpJDd1EK-77" value="" style="endArrow=none;html=1;rounded=0;exitX=0.75;exitY=1;exitDx=0;exitDy=0;entryX=0.5;entryY=0;entryDx=0;entryDy=0;" parent="1" source="jD9WdKMEJikVOpJDd1EK-6" target="jD9WdKMEJikVOpJDd1EK-75" edge="1">
          <mxGeometry relative="1" as="geometry">
            <mxPoint x="-110" y="410" as="sourcePoint" />
            <mxPoint x="50" y="410" as="targetPoint" />
          </mxGeometry>
        </mxCell>
        <mxCell id="jD9WdKMEJikVOpJDd1EK-78" value="Poseer" style="shape=rhombus;perimeter=rhombusPerimeter;whiteSpace=wrap;html=1;align=center;" parent="1" vertex="1">
          <mxGeometry x="80" y="460" width="120" height="60" as="geometry" />
        </mxCell>
        <mxCell id="jD9WdKMEJikVOpJDd1EK-79" value="NumeroExterior" style="ellipse;whiteSpace=wrap;html=1;align=center;" parent="1" vertex="1">
          <mxGeometry x="115" y="573" width="100" height="26" as="geometry" />
        </mxCell>
        <mxCell id="jD9WdKMEJikVOpJDd1EK-80" value="Calle" style="ellipse;whiteSpace=wrap;html=1;align=center;" parent="1" vertex="1">
          <mxGeometry x="175" y="619" width="100" height="24" as="geometry" />
        </mxCell>
        <mxCell id="jD9WdKMEJikVOpJDd1EK-81" value="NumeroInterior" style="ellipse;whiteSpace=wrap;html=1;align=center;" parent="1" vertex="1">
          <mxGeometry x="55" y="609" width="100" height="20" as="geometry" />
        </mxCell>
        <mxCell id="jD9WdKMEJikVOpJDd1EK-82" value="Colonia" style="ellipse;whiteSpace=wrap;html=1;align=center;" parent="1" vertex="1">
          <mxGeometry x="175" y="543" width="100" height="26" as="geometry" />
        </mxCell>
        <mxCell id="jD9WdKMEJikVOpJDd1EK-83" value="Estado" style="ellipse;whiteSpace=wrap;html=1;align=center;" parent="1" vertex="1">
          <mxGeometry x="245" y="648" width="100" height="21" as="geometry" />
        </mxCell>
        <mxCell id="jD9WdKMEJikVOpJDd1EK-84" value="" style="endArrow=none;html=1;rounded=0;entryX=0.5;entryY=1;entryDx=0;entryDy=0;exitX=0;exitY=0;exitDx=0;exitDy=0;" parent="1" target="jD9WdKMEJikVOpJDd1EK-82" edge="1">
          <mxGeometry width="50" height="50" relative="1" as="geometry">
            <mxPoint x="320" y="585" as="sourcePoint" />
            <mxPoint x="75" y="618" as="targetPoint" />
          </mxGeometry>
        </mxCell>
        <mxCell id="jD9WdKMEJikVOpJDd1EK-85" value="" style="endArrow=none;html=1;rounded=0;exitX=0;exitY=0.5;exitDx=0;exitDy=0;entryX=1;entryY=1;entryDx=0;entryDy=0;" parent="1" target="jD9WdKMEJikVOpJDd1EK-79" edge="1">
          <mxGeometry width="50" height="50" relative="1" as="geometry">
            <mxPoint x="305" y="599" as="sourcePoint" />
            <mxPoint x="80" y="638" as="targetPoint" />
          </mxGeometry>
        </mxCell>
        <mxCell id="jD9WdKMEJikVOpJDd1EK-86" value="" style="endArrow=none;html=1;rounded=0;entryX=0.93;entryY=0.233;entryDx=0;entryDy=0;exitX=0;exitY=1;exitDx=0;exitDy=0;entryPerimeter=0;" parent="1" target="jD9WdKMEJikVOpJDd1EK-80" edge="1">
          <mxGeometry width="50" height="50" relative="1" as="geometry">
            <mxPoint x="320" y="613" as="sourcePoint" />
            <mxPoint x="150" y="678" as="targetPoint" />
          </mxGeometry>
        </mxCell>
        <mxCell id="jD9WdKMEJikVOpJDd1EK-87" value="" style="endArrow=none;html=1;rounded=0;exitX=1;exitY=0.5;exitDx=0;exitDy=0;entryX=0.03;entryY=0.68;entryDx=0;entryDy=0;entryPerimeter=0;" parent="1" source="jD9WdKMEJikVOpJDd1EK-81" edge="1">
          <mxGeometry relative="1" as="geometry">
            <mxPoint x="355" y="679" as="sourcePoint" />
            <mxPoint x="308" y="606" as="targetPoint" />
          </mxGeometry>
        </mxCell>
        <mxCell id="jD9WdKMEJikVOpJDd1EK-88" value="" style="endArrow=none;html=1;rounded=0;exitX=0.574;exitY=-0.086;exitDx=0;exitDy=0;exitPerimeter=0;entryX=0.286;entryY=1.04;entryDx=0;entryDy=0;entryPerimeter=0;" parent="1" source="jD9WdKMEJikVOpJDd1EK-83" edge="1">
          <mxGeometry relative="1" as="geometry">
            <mxPoint x="335" y="649" as="sourcePoint" />
            <mxPoint x="334" y="621" as="targetPoint" />
          </mxGeometry>
        </mxCell>
        <mxCell id="jD9WdKMEJikVOpJDd1EK-89" value="Direccion_part" style="ellipse;whiteSpace=wrap;html=1;align=center;" parent="1" vertex="1">
          <mxGeometry x="305" y="579" width="100" height="40" as="geometry" />
        </mxCell>
        <mxCell id="jD9WdKMEJikVOpJDd1EK-90" value="" style="endArrow=none;html=1;rounded=0;exitX=0.5;exitY=0;exitDx=0;exitDy=0;entryX=0.25;entryY=1;entryDx=0;entryDy=0;" parent="1" source="jD9WdKMEJikVOpJDd1EK-89" target="jD9WdKMEJikVOpJDd1EK-7" edge="1">
          <mxGeometry relative="1" as="geometry">
            <mxPoint x="440" y="430" as="sourcePoint" />
            <mxPoint x="380" y="600" as="targetPoint" />
          </mxGeometry>
        </mxCell>
        <mxCell id="jD9WdKMEJikVOpJDd1EK-91" value="Pertenecer" style="shape=rhombus;perimeter=rhombusPerimeter;whiteSpace=wrap;html=1;align=center;" parent="1" vertex="1">
          <mxGeometry x="860" y="460" width="120" height="60" as="geometry" />
        </mxCell>
        <mxCell id="jD9WdKMEJikVOpJDd1EK-95" value="Población" style="ellipse;whiteSpace=wrap;html=1;align=center;" parent="1" vertex="1">
          <mxGeometry x="753" y="612" width="100" height="40" as="geometry" />
        </mxCell>
        <mxCell id="jD9WdKMEJikVOpJDd1EK-96" value="Nombre_municipio" style="ellipse;whiteSpace=wrap;html=1;align=center;" parent="1" vertex="1">
          <mxGeometry x="940" y="643" width="100" height="40" as="geometry" />
        </mxCell>
        <mxCell id="jD9WdKMEJikVOpJDd1EK-98" value="Asignar" style="shape=rhombus;perimeter=rhombusPerimeter;whiteSpace=wrap;html=1;align=center;" parent="1" vertex="1">
          <mxGeometry x="510" y="-10" width="120" height="60" as="geometry" />
        </mxCell>
        <mxCell id="jD9WdKMEJikVOpJDd1EK-99" value="" style="endArrow=none;html=1;rounded=0;exitX=1;exitY=0.25;exitDx=0;exitDy=0;entryX=0;entryY=0.5;entryDx=0;entryDy=0;shape=link;" parent="1" source="jD9WdKMEJikVOpJDd1EK-2" target="jD9WdKMEJikVOpJDd1EK-98" edge="1">
          <mxGeometry relative="1" as="geometry">
            <mxPoint x="390" y="280" as="sourcePoint" />
            <mxPoint x="550" y="280" as="targetPoint" />
          </mxGeometry>
        </mxCell>
        <mxCell id="jD9WdKMEJikVOpJDd1EK-101" value="ID_casilla" style="ellipse;whiteSpace=wrap;html=1;align=center;fontStyle=4;" parent="1" vertex="1">
          <mxGeometry x="770" y="64" width="100" height="40" as="geometry" />
        </mxCell>
        <mxCell id="jD9WdKMEJikVOpJDd1EK-102" value="Voto_blanco" style="ellipse;whiteSpace=wrap;html=1;align=center;" parent="1" vertex="1">
          <mxGeometry x="1010" width="100" height="40" as="geometry" />
        </mxCell>
        <mxCell id="jD9WdKMEJikVOpJDd1EK-103" value="Componer" style="shape=rhombus;perimeter=rhombusPerimeter;whiteSpace=wrap;html=1;align=center;" parent="1" vertex="1">
          <mxGeometry x="630" y="220" width="120" height="60" as="geometry" />
        </mxCell>
        <mxCell id="jD9WdKMEJikVOpJDd1EK-104" value="" style="endArrow=none;html=1;rounded=0;exitX=1;exitY=0.5;exitDx=0;exitDy=0;entryX=0;entryY=0.5;entryDx=0;entryDy=0;shape=link;" parent="1" source="jD9WdKMEJikVOpJDd1EK-9" target="jD9WdKMEJikVOpJDd1EK-103" edge="1">
          <mxGeometry relative="1" as="geometry">
            <mxPoint x="560" y="280" as="sourcePoint" />
            <mxPoint x="720" y="280" as="targetPoint" />
          </mxGeometry>
        </mxCell>
        <mxCell id="jD9WdKMEJikVOpJDd1EK-106" value="Voto_nulo" style="ellipse;whiteSpace=wrap;html=1;align=center;" parent="1" vertex="1">
          <mxGeometry x="980" y="54" width="100" height="40" as="geometry" />
        </mxCell>
        <mxCell id="jD9WdKMEJikVOpJDd1EK-108" value="" style="endArrow=none;html=1;rounded=0;entryX=0.5;entryY=1;entryDx=0;entryDy=0;exitX=0.5;exitY=0;exitDx=0;exitDy=0;" parent="1" source="jD9WdKMEJikVOpJDd1EK-4" edge="1">
          <mxGeometry relative="1" as="geometry">
            <mxPoint x="560" y="190" as="sourcePoint" />
            <mxPoint x="920" y="-20" as="targetPoint" />
          </mxGeometry>
        </mxCell>
        <mxCell id="jD9WdKMEJikVOpJDd1EK-109" value="" style="endArrow=none;html=1;rounded=0;exitX=0;exitY=0.5;exitDx=0;exitDy=0;entryX=1;entryY=0.5;entryDx=0;entryDy=0;" parent="1" source="jD9WdKMEJikVOpJDd1EK-102" target="jD9WdKMEJikVOpJDd1EK-4" edge="1">
          <mxGeometry relative="1" as="geometry">
            <mxPoint x="560" y="190" as="sourcePoint" />
            <mxPoint x="720" y="190" as="targetPoint" />
          </mxGeometry>
        </mxCell>
        <mxCell id="jD9WdKMEJikVOpJDd1EK-110" value="" style="endArrow=none;html=1;rounded=0;exitX=1;exitY=1;exitDx=0;exitDy=0;entryX=0;entryY=0;entryDx=0;entryDy=0;" parent="1" source="jD9WdKMEJikVOpJDd1EK-4" target="jD9WdKMEJikVOpJDd1EK-106" edge="1">
          <mxGeometry relative="1" as="geometry">
            <mxPoint x="560" y="190" as="sourcePoint" />
            <mxPoint x="720" y="190" as="targetPoint" />
          </mxGeometry>
        </mxCell>
        <mxCell id="jD9WdKMEJikVOpJDd1EK-111" value="" style="endArrow=none;html=1;rounded=0;exitX=0.154;exitY=1.02;exitDx=0;exitDy=0;entryX=0.5;entryY=0;entryDx=0;entryDy=0;exitPerimeter=0;" parent="1" source="jD9WdKMEJikVOpJDd1EK-4" target="jD9WdKMEJikVOpJDd1EK-101" edge="1">
          <mxGeometry relative="1" as="geometry">
            <mxPoint x="560" y="190" as="sourcePoint" />
            <mxPoint x="720" y="190" as="targetPoint" />
          </mxGeometry>
        </mxCell>
        <mxCell id="jD9WdKMEJikVOpJDd1EK-112" value="Situar" style="shape=rhombus;perimeter=rhombusPerimeter;whiteSpace=wrap;html=1;align=center;" parent="1" vertex="1">
          <mxGeometry x="860" y="120" width="120" height="60" as="geometry" />
        </mxCell>
        <mxCell id="jD9WdKMEJikVOpJDd1EK-113" value="" style="endArrow=none;html=1;rounded=0;exitX=0.5;exitY=1;exitDx=0;exitDy=0;entryX=0.5;entryY=0;entryDx=0;entryDy=0;shape=link;" parent="1" source="jD9WdKMEJikVOpJDd1EK-4" target="jD9WdKMEJikVOpJDd1EK-112" edge="1">
          <mxGeometry relative="1" as="geometry">
            <mxPoint x="500" y="130" as="sourcePoint" />
            <mxPoint x="660" y="130" as="targetPoint" />
          </mxGeometry>
        </mxCell>
        <mxCell id="jD9WdKMEJikVOpJDd1EK-115" style="edgeStyle=orthogonalEdgeStyle;rounded=0;orthogonalLoop=1;jettySize=auto;html=1;exitX=0.5;exitY=1;exitDx=0;exitDy=0;" parent="1" source="jD9WdKMEJikVOpJDd1EK-46" target="jD9WdKMEJikVOpJDd1EK-46" edge="1">
          <mxGeometry relative="1" as="geometry" />
        </mxCell>
        <mxCell id="jD9WdKMEJikVOpJDd1EK-117" value="Telefono" style="ellipse;shape=doubleEllipse;margin=3;whiteSpace=wrap;html=1;align=center;" parent="1" vertex="1">
          <mxGeometry x="430" y="543" width="100" height="40" as="geometry" />
        </mxCell>
        <mxCell id="jD9WdKMEJikVOpJDd1EK-119" value="" style="endArrow=none;html=1;rounded=0;exitX=1;exitY=0.5;exitDx=0;exitDy=0;entryX=0;entryY=0.5;entryDx=0;entryDy=0;shape=link;" parent="1" source="jD9WdKMEJikVOpJDd1EK-78" target="jD9WdKMEJikVOpJDd1EK-7" edge="1">
          <mxGeometry relative="1" as="geometry">
            <mxPoint x="190" y="570" as="sourcePoint" />
            <mxPoint x="350" y="570" as="targetPoint" />
          </mxGeometry>
        </mxCell>
        <mxCell id="jD9WdKMEJikVOpJDd1EK-121" value="" style="endArrow=none;html=1;rounded=0;exitX=0.75;exitY=1;exitDx=0;exitDy=0;entryX=0;entryY=0;entryDx=0;entryDy=0;" parent="1" source="jD9WdKMEJikVOpJDd1EK-7" target="jD9WdKMEJikVOpJDd1EK-117" edge="1">
          <mxGeometry relative="1" as="geometry">
            <mxPoint x="190" y="570" as="sourcePoint" />
            <mxPoint x="350" y="570" as="targetPoint" />
          </mxGeometry>
        </mxCell>
        <mxCell id="jD9WdKMEJikVOpJDd1EK-122" value="" style="endArrow=none;html=1;rounded=0;" parent="1" edge="1">
          <mxGeometry relative="1" as="geometry">
            <mxPoint x="840" y="580" as="sourcePoint" />
            <mxPoint x="870" y="584" as="targetPoint" />
          </mxGeometry>
        </mxCell>
        <mxCell id="jD9WdKMEJikVOpJDd1EK-123" value="" style="endArrow=none;html=1;rounded=0;exitX=1;exitY=0;exitDx=0;exitDy=0;entryX=0;entryY=0.75;entryDx=0;entryDy=0;" parent="1" source="jD9WdKMEJikVOpJDd1EK-95" target="jD9WdKMEJikVOpJDd1EK-1" edge="1">
          <mxGeometry relative="1" as="geometry">
            <mxPoint x="880" y="624" as="sourcePoint" />
            <mxPoint x="870" y="614" as="targetPoint" />
          </mxGeometry>
        </mxCell>
        <mxCell id="jD9WdKMEJikVOpJDd1EK-124" value="" style="endArrow=none;html=1;rounded=0;exitX=0.75;exitY=1;exitDx=0;exitDy=0;entryX=0.5;entryY=0;entryDx=0;entryDy=0;fontStyle=1" parent="1" source="jD9WdKMEJikVOpJDd1EK-1" target="jD9WdKMEJikVOpJDd1EK-96" edge="1">
          <mxGeometry relative="1" as="geometry">
            <mxPoint x="1190" y="534" as="sourcePoint" />
            <mxPoint x="1350" y="534" as="targetPoint" />
          </mxGeometry>
        </mxCell>
        <mxCell id="jD9WdKMEJikVOpJDd1EK-125" value="" style="endArrow=none;html=1;rounded=0;exitX=1;exitY=0.5;exitDx=0;exitDy=0;entryX=0;entryY=0.5;entryDx=0;entryDy=0;shape=link;" parent="1" source="jD9WdKMEJikVOpJDd1EK-1" target="mOsOk23uM0nxAcAkjJ4n-26" edge="1">
          <mxGeometry relative="1" as="geometry">
            <mxPoint x="1190" y="534" as="sourcePoint" />
            <mxPoint x="1015" y="594" as="targetPoint" />
          </mxGeometry>
        </mxCell>
        <mxCell id="jD9WdKMEJikVOpJDd1EK-126" value="ID_sede" style="ellipse;whiteSpace=wrap;html=1;align=center;fontStyle=4;" parent="1" vertex="1">
          <mxGeometry x="470" y="470" width="100" height="40" as="geometry" />
        </mxCell>
        <mxCell id="jD9WdKMEJikVOpJDd1EK-127" value="" style="endArrow=none;html=1;rounded=0;exitX=1;exitY=0.5;exitDx=0;exitDy=0;entryX=0;entryY=0.5;entryDx=0;entryDy=0;" parent="1" source="jD9WdKMEJikVOpJDd1EK-7" target="jD9WdKMEJikVOpJDd1EK-126" edge="1">
          <mxGeometry relative="1" as="geometry">
            <mxPoint x="290" y="590" as="sourcePoint" />
            <mxPoint x="450" y="590" as="targetPoint" />
          </mxGeometry>
        </mxCell>
        <mxCell id="jD9WdKMEJikVOpJDd1EK-131" value="NumeroExterior" style="ellipse;whiteSpace=wrap;html=1;align=center;" parent="1" vertex="1">
          <mxGeometry x="550" y="320" width="100" height="26" as="geometry" />
        </mxCell>
        <mxCell id="jD9WdKMEJikVOpJDd1EK-132" value="Calle" style="ellipse;whiteSpace=wrap;html=1;align=center;" parent="1" vertex="1">
          <mxGeometry x="610" y="366" width="100" height="24" as="geometry" />
        </mxCell>
        <mxCell id="jD9WdKMEJikVOpJDd1EK-133" value="NumeroInterior" style="ellipse;whiteSpace=wrap;html=1;align=center;" parent="1" vertex="1">
          <mxGeometry x="490" y="356" width="100" height="20" as="geometry" />
        </mxCell>
        <mxCell id="jD9WdKMEJikVOpJDd1EK-134" value="Colonia" style="ellipse;whiteSpace=wrap;html=1;align=center;" parent="1" vertex="1">
          <mxGeometry x="610" y="290" width="100" height="26" as="geometry" />
        </mxCell>
        <mxCell id="jD9WdKMEJikVOpJDd1EK-135" value="Estado" style="ellipse;whiteSpace=wrap;html=1;align=center;" parent="1" vertex="1">
          <mxGeometry x="680" y="395" width="100" height="21" as="geometry" />
        </mxCell>
        <mxCell id="jD9WdKMEJikVOpJDd1EK-136" value="" style="endArrow=none;html=1;rounded=0;entryX=0.5;entryY=1;entryDx=0;entryDy=0;" parent="1" target="jD9WdKMEJikVOpJDd1EK-134" edge="1">
          <mxGeometry width="50" height="50" relative="1" as="geometry">
            <mxPoint x="750" y="330" as="sourcePoint" />
            <mxPoint x="510" y="365" as="targetPoint" />
          </mxGeometry>
        </mxCell>
        <mxCell id="jD9WdKMEJikVOpJDd1EK-137" value="" style="endArrow=none;html=1;rounded=0;exitX=0;exitY=0.5;exitDx=0;exitDy=0;entryX=1;entryY=1;entryDx=0;entryDy=0;" parent="1" target="jD9WdKMEJikVOpJDd1EK-131" edge="1">
          <mxGeometry width="50" height="50" relative="1" as="geometry">
            <mxPoint x="740" y="346" as="sourcePoint" />
            <mxPoint x="515" y="385" as="targetPoint" />
          </mxGeometry>
        </mxCell>
        <mxCell id="jD9WdKMEJikVOpJDd1EK-138" value="" style="endArrow=none;html=1;rounded=0;entryX=0.93;entryY=0.233;entryDx=0;entryDy=0;exitX=0;exitY=1;exitDx=0;exitDy=0;entryPerimeter=0;" parent="1" target="jD9WdKMEJikVOpJDd1EK-132" edge="1">
          <mxGeometry width="50" height="50" relative="1" as="geometry">
            <mxPoint x="755" y="360" as="sourcePoint" />
            <mxPoint x="585" y="425" as="targetPoint" />
          </mxGeometry>
        </mxCell>
        <mxCell id="jD9WdKMEJikVOpJDd1EK-139" value="" style="endArrow=none;html=1;rounded=0;exitX=1;exitY=0.5;exitDx=0;exitDy=0;entryX=0.03;entryY=0.68;entryDx=0;entryDy=0;entryPerimeter=0;" parent="1" source="jD9WdKMEJikVOpJDd1EK-133" edge="1">
          <mxGeometry relative="1" as="geometry">
            <mxPoint x="790" y="426" as="sourcePoint" />
            <mxPoint x="743" y="353" as="targetPoint" />
          </mxGeometry>
        </mxCell>
        <mxCell id="jD9WdKMEJikVOpJDd1EK-140" value="" style="endArrow=none;html=1;rounded=0;exitX=0.574;exitY=-0.086;exitDx=0;exitDy=0;exitPerimeter=0;entryX=0.278;entryY=1.029;entryDx=0;entryDy=0;entryPerimeter=0;" parent="1" source="jD9WdKMEJikVOpJDd1EK-135" target="jD9WdKMEJikVOpJDd1EK-43" edge="1">
          <mxGeometry relative="1" as="geometry">
            <mxPoint x="770" y="396" as="sourcePoint" />
            <mxPoint x="769" y="368" as="targetPoint" />
          </mxGeometry>
        </mxCell>
        <mxCell id="mOsOk23uM0nxAcAkjJ4n-1" value="" style="endArrow=classic;html=1;rounded=0;entryX=0.5;entryY=0;entryDx=0;entryDy=0;exitX=0;exitY=0.5;exitDx=0;exitDy=0;" parent="1" source="jD9WdKMEJikVOpJDd1EK-53" target="jD9WdKMEJikVOpJDd1EK-5" edge="1">
          <mxGeometry width="50" height="50" relative="1" as="geometry">
            <mxPoint x="80" y="490" as="sourcePoint" />
            <mxPoint x="130" y="440" as="targetPoint" />
            <Array as="points">
              <mxPoint x="-80" y="250" />
            </Array>
          </mxGeometry>
        </mxCell>
        <mxCell id="mOsOk23uM0nxAcAkjJ4n-2" value="" style="endArrow=none;html=1;rounded=0;entryX=0;entryY=0.5;entryDx=0;entryDy=0;" parent="1" edge="1">
          <mxGeometry width="50" height="50" relative="1" as="geometry">
            <mxPoint x="-84" y="276" as="sourcePoint" />
            <mxPoint x="-24" y="246" as="targetPoint" />
            <Array as="points">
              <mxPoint x="-84" y="246" />
            </Array>
          </mxGeometry>
        </mxCell>
        <mxCell id="mOsOk23uM0nxAcAkjJ4n-3" value="" style="endArrow=classic;html=1;rounded=0;entryX=1;entryY=0.5;entryDx=0;entryDy=0;exitX=0;exitY=0.5;exitDx=0;exitDy=0;" parent="1" source="jD9WdKMEJikVOpJDd1EK-78" target="jD9WdKMEJikVOpJDd1EK-6" edge="1">
          <mxGeometry width="50" height="50" relative="1" as="geometry">
            <mxPoint x="-10" y="470" as="sourcePoint" />
            <mxPoint x="40" y="420" as="targetPoint" />
          </mxGeometry>
        </mxCell>
        <mxCell id="mOsOk23uM0nxAcAkjJ4n-4" value="" style="endArrow=classic;html=1;rounded=0;exitX=0.5;exitY=0;exitDx=0;exitDy=0;entryX=0;entryY=0.75;entryDx=0;entryDy=0;" parent="1" source="jD9WdKMEJikVOpJDd1EK-103" target="jD9WdKMEJikVOpJDd1EK-4" edge="1">
          <mxGeometry width="50" height="50" relative="1" as="geometry">
            <mxPoint x="520" y="180" as="sourcePoint" />
            <mxPoint x="570" y="130" as="targetPoint" />
            <Array as="points">
              <mxPoint x="690" y="30" />
            </Array>
          </mxGeometry>
        </mxCell>
        <mxCell id="mOsOk23uM0nxAcAkjJ4n-5" value="" style="endArrow=none;html=1;rounded=0;" parent="1" edge="1">
          <mxGeometry width="50" height="50" relative="1" as="geometry">
            <mxPoint x="686" y="216" as="sourcePoint" />
            <mxPoint x="856" y="26" as="targetPoint" />
            <Array as="points">
              <mxPoint x="686" y="26" />
            </Array>
          </mxGeometry>
        </mxCell>
        <mxCell id="mOsOk23uM0nxAcAkjJ4n-6" value="" style="endArrow=classic;html=1;rounded=0;entryX=0.5;entryY=0;entryDx=0;entryDy=0;exitX=0.5;exitY=1;exitDx=0;exitDy=0;" parent="1" source="jD9WdKMEJikVOpJDd1EK-112" target="jD9WdKMEJikVOpJDd1EK-13" edge="1">
          <mxGeometry width="50" height="50" relative="1" as="geometry">
            <mxPoint x="650" y="180" as="sourcePoint" />
            <mxPoint x="700" y="130" as="targetPoint" />
          </mxGeometry>
        </mxCell>
        <mxCell id="mOsOk23uM0nxAcAkjJ4n-7" value="" style="endArrow=none;html=1;rounded=0;entryX=0.5;entryY=1;entryDx=0;entryDy=0;" parent="1" edge="1">
          <mxGeometry width="50" height="50" relative="1" as="geometry">
            <mxPoint x="916" y="279" as="sourcePoint" />
            <mxPoint x="916" y="179" as="targetPoint" />
          </mxGeometry>
        </mxCell>
        <mxCell id="mOsOk23uM0nxAcAkjJ4n-8" value="" style="endArrow=none;html=1;rounded=0;exitX=0.5;exitY=1;exitDx=0;exitDy=0;entryX=0.5;entryY=0;entryDx=0;entryDy=0;shape=link;" parent="1" source="jD9WdKMEJikVOpJDd1EK-13" target="jD9WdKMEJikVOpJDd1EK-91" edge="1">
          <mxGeometry width="50" height="50" relative="1" as="geometry">
            <mxPoint x="530" y="630" as="sourcePoint" />
            <mxPoint x="580" y="580" as="targetPoint" />
          </mxGeometry>
        </mxCell>
        <mxCell id="mOsOk23uM0nxAcAkjJ4n-9" value="" style="endArrow=classic;html=1;rounded=0;entryX=0.5;entryY=0;entryDx=0;entryDy=0;exitX=0.5;exitY=1;exitDx=0;exitDy=0;" parent="1" source="jD9WdKMEJikVOpJDd1EK-91" target="jD9WdKMEJikVOpJDd1EK-1" edge="1">
          <mxGeometry width="50" height="50" relative="1" as="geometry">
            <mxPoint x="530" y="630" as="sourcePoint" />
            <mxPoint x="580" y="580" as="targetPoint" />
          </mxGeometry>
        </mxCell>
        <mxCell id="mOsOk23uM0nxAcAkjJ4n-10" value="" style="endArrow=classic;html=1;rounded=0;entryX=0.5;entryY=1;entryDx=0;entryDy=0;exitX=0.5;exitY=0;exitDx=0;exitDy=0;" parent="1" source="jD9WdKMEJikVOpJDd1EK-52" target="jD9WdKMEJikVOpJDd1EK-5" edge="1">
          <mxGeometry width="50" height="50" relative="1" as="geometry">
            <mxPoint x="290" y="370" as="sourcePoint" />
            <mxPoint x="340" y="320" as="targetPoint" />
          </mxGeometry>
        </mxCell>
        <mxCell id="mOsOk23uM0nxAcAkjJ4n-11" value="" style="endArrow=classic;html=1;rounded=0;exitX=0.5;exitY=1;exitDx=0;exitDy=0;entryX=0.5;entryY=0;entryDx=0;entryDy=0;" parent="1" source="jD9WdKMEJikVOpJDd1EK-52" target="jD9WdKMEJikVOpJDd1EK-6" edge="1">
          <mxGeometry width="50" height="50" relative="1" as="geometry">
            <mxPoint x="290" y="370" as="sourcePoint" />
            <mxPoint x="340" y="320" as="targetPoint" />
          </mxGeometry>
        </mxCell>
        <mxCell id="mOsOk23uM0nxAcAkjJ4n-12" value="Contender" style="shape=rhombus;perimeter=rhombusPerimeter;whiteSpace=wrap;html=1;align=center;" parent="1" vertex="1">
          <mxGeometry x="150" y="710" width="120" height="60" as="geometry" />
        </mxCell>
        <mxCell id="mOsOk23uM0nxAcAkjJ4n-15" value="" style="endArrow=none;html=1;rounded=0;exitX=1;exitY=0.5;exitDx=0;exitDy=0;entryX=0.5;entryY=1;entryDx=0;entryDy=0;shape=link;" parent="1" source="mOsOk23uM0nxAcAkjJ4n-12" target="jD9WdKMEJikVOpJDd1EK-1" edge="1">
          <mxGeometry width="50" height="50" relative="1" as="geometry">
            <mxPoint x="380" y="570" as="sourcePoint" />
            <mxPoint x="430" y="520" as="targetPoint" />
            <Array as="points">
              <mxPoint x="920" y="740" />
            </Array>
          </mxGeometry>
        </mxCell>
        <mxCell id="mOsOk23uM0nxAcAkjJ4n-16" value="" style="endArrow=none;html=1;rounded=0;exitX=0.5;exitY=1;exitDx=0;exitDy=0;entryX=0;entryY=0.5;entryDx=0;entryDy=0;shape=link;" parent="1" source="jD9WdKMEJikVOpJDd1EK-6" target="mOsOk23uM0nxAcAkjJ4n-12" edge="1">
          <mxGeometry width="50" height="50" relative="1" as="geometry">
            <mxPoint x="130" y="570" as="sourcePoint" />
            <mxPoint x="180" y="520" as="targetPoint" />
            <Array as="points">
              <mxPoint x="-80" y="740" />
            </Array>
          </mxGeometry>
        </mxCell>
        <mxCell id="mOsOk23uM0nxAcAkjJ4n-17" value="" style="endArrow=classic;html=1;rounded=0;exitX=1;exitY=0.5;exitDx=0;exitDy=0;entryX=0;entryY=0.5;entryDx=0;entryDy=0;" parent="1" source="jD9WdKMEJikVOpJDd1EK-98" target="jD9WdKMEJikVOpJDd1EK-4" edge="1">
          <mxGeometry width="50" height="50" relative="1" as="geometry">
            <mxPoint x="480" y="310" as="sourcePoint" />
            <mxPoint x="530" y="260" as="targetPoint" />
          </mxGeometry>
        </mxCell>
        <mxCell id="mOsOk23uM0nxAcAkjJ4n-19" value="" style="endArrow=none;html=1;rounded=0;" parent="1" edge="1">
          <mxGeometry width="50" height="50" relative="1" as="geometry">
            <mxPoint x="630" y="16" as="sourcePoint" />
            <mxPoint x="870" y="16" as="targetPoint" />
          </mxGeometry>
        </mxCell>
        <mxCell id="mOsOk23uM0nxAcAkjJ4n-20" value="Voto" style="ellipse;whiteSpace=wrap;html=1;align=center;" parent="1" vertex="1">
          <mxGeometry x="871" y="-60" width="100" height="40" as="geometry" />
        </mxCell>
        <mxCell id="mOsOk23uM0nxAcAkjJ4n-21" value="" style="endArrow=none;html=1;rounded=0;exitX=0.5;exitY=0;exitDx=0;exitDy=0;" parent="1" edge="1">
          <mxGeometry width="50" height="50" relative="1" as="geometry">
            <mxPoint x="-83" y="466" as="sourcePoint" />
            <mxPoint x="-83" y="426" as="targetPoint" />
          </mxGeometry>
        </mxCell>
        <mxCell id="mOsOk23uM0nxAcAkjJ4n-22" value="" style="endArrow=none;html=1;rounded=0;exitX=0.5;exitY=0;exitDx=0;exitDy=0;" parent="1" edge="1">
          <mxGeometry width="50" height="50" relative="1" as="geometry">
            <mxPoint x="-83" y="363" as="sourcePoint" />
            <mxPoint x="-83" y="323" as="targetPoint" />
          </mxGeometry>
        </mxCell>
        <mxCell id="mOsOk23uM0nxAcAkjJ4n-23" value="" style="endArrow=none;html=1;rounded=0;exitX=0.25;exitY=1;exitDx=0;exitDy=0;" parent="1" edge="1">
          <mxGeometry relative="1" as="geometry">
            <mxPoint x="295" y="265" as="sourcePoint" />
            <mxPoint x="294.97518595104975" y="265.099256195801" as="targetPoint" />
          </mxGeometry>
        </mxCell>
        <mxCell id="mOsOk23uM0nxAcAkjJ4n-24" value="Genero" style="ellipse;whiteSpace=wrap;html=1;align=center;" parent="1" vertex="1">
          <mxGeometry x="230" y="300" width="100" height="40" as="geometry" />
        </mxCell>
        <mxCell id="mOsOk23uM0nxAcAkjJ4n-25" value="" style="endArrow=none;html=1;rounded=0;exitX=1;exitY=1;exitDx=0;exitDy=0;entryX=0.5;entryY=0;entryDx=0;entryDy=0;" parent="1" source="jD9WdKMEJikVOpJDd1EK-3" target="mOsOk23uM0nxAcAkjJ4n-24" edge="1">
          <mxGeometry relative="1" as="geometry">
            <mxPoint x="295" y="265" as="sourcePoint" />
            <mxPoint x="490" y="175" as="targetPoint" />
          </mxGeometry>
        </mxCell>
        <mxCell id="mOsOk23uM0nxAcAkjJ4n-26" value="Existir" style="shape=rhombus;perimeter=rhombusPerimeter;whiteSpace=wrap;html=1;align=center;" parent="1" vertex="1">
          <mxGeometry x="1021" y="564" width="120" height="60" as="geometry" />
        </mxCell>
        <mxCell id="mOsOk23uM0nxAcAkjJ4n-27" value="Estado" style="whiteSpace=wrap;html=1;align=center;" parent="1" vertex="1">
          <mxGeometry x="1200" y="573.5" width="100" height="40" as="geometry" />
        </mxCell>
        <mxCell id="mOsOk23uM0nxAcAkjJ4n-29" value="" style="endArrow=classic;html=1;rounded=0;entryX=0;entryY=0.5;entryDx=0;entryDy=0;exitX=1;exitY=0.5;exitDx=0;exitDy=0;" parent="1" source="mOsOk23uM0nxAcAkjJ4n-26" target="mOsOk23uM0nxAcAkjJ4n-27" edge="1">
          <mxGeometry width="50" height="50" relative="1" as="geometry">
            <mxPoint x="980" y="770" as="sourcePoint" />
            <mxPoint x="1030" y="720" as="targetPoint" />
          </mxGeometry>
        </mxCell>
        <mxCell id="mOsOk23uM0nxAcAkjJ4n-30" value="Nombre_estado" style="ellipse;whiteSpace=wrap;html=1;align=center;" parent="1" vertex="1">
          <mxGeometry x="1196" y="648" width="100" height="40" as="geometry" />
        </mxCell>
        <mxCell id="mOsOk23uM0nxAcAkjJ4n-31" value="" style="endArrow=none;html=1;rounded=0;exitX=0.75;exitY=1;exitDx=0;exitDy=0;entryX=0.5;entryY=0;entryDx=0;entryDy=0;fontStyle=1" parent="1" target="mOsOk23uM0nxAcAkjJ4n-30" edge="1">
          <mxGeometry relative="1" as="geometry">
            <mxPoint x="1246" y="614" as="sourcePoint" />
            <mxPoint x="1651" y="534" as="targetPoint" />
          </mxGeometry>
        </mxCell>
        <mxCell id="mOsOk23uM0nxAcAkjJ4n-32" value="ID_estado" style="ellipse;whiteSpace=wrap;html=1;align=center;fontStyle=4;" parent="1" vertex="1">
          <mxGeometry x="1340" y="573" width="100" height="40" as="geometry" />
        </mxCell>
        <mxCell id="mOsOk23uM0nxAcAkjJ4n-33" value="" style="endArrow=none;html=1;rounded=0;exitX=1;exitY=0.5;exitDx=0;exitDy=0;entryX=0;entryY=0.5;entryDx=0;entryDy=0;" parent="1" source="mOsOk23uM0nxAcAkjJ4n-27" target="mOsOk23uM0nxAcAkjJ4n-32" edge="1">
          <mxGeometry relative="1" as="geometry">
            <mxPoint x="920" y="750" as="sourcePoint" />
            <mxPoint x="1080" y="750" as="targetPoint" />
          </mxGeometry>
        </mxCell>
        <mxCell id="mOsOk23uM0nxAcAkjJ4n-35" value="" style="endArrow=none;html=1;rounded=0;exitX=1;exitY=0.5;exitDx=0;exitDy=0;" parent="1" edge="1">
          <mxGeometry relative="1" as="geometry">
            <mxPoint x="1140" y="597" as="sourcePoint" />
            <mxPoint x="1199" y="597" as="targetPoint" />
          </mxGeometry>
        </mxCell>
        <mxCell id="mOsOk23uM0nxAcAkjJ4n-38" value="Voto_total" style="ellipse;whiteSpace=wrap;html=1;align=center;" parent="1" vertex="1">
          <mxGeometry x="742" y="553" width="100" height="40" as="geometry" />
        </mxCell>
        <mxCell id="mOsOk23uM0nxAcAkjJ4n-39" value="ID_municipio" style="ellipse;whiteSpace=wrap;html=1;align=center;fontStyle=4;" parent="1" vertex="1">
          <mxGeometry x="970" y="529" width="100" height="40" as="geometry" />
        </mxCell>
        <mxCell id="mOsOk23uM0nxAcAkjJ4n-40" value="" style="endArrow=none;html=1;rounded=0;exitX=0.75;exitY=0;exitDx=0;exitDy=0;entryX=0.042;entryY=0.775;entryDx=0;entryDy=0;entryPerimeter=0;" parent="1" source="jD9WdKMEJikVOpJDd1EK-1" target="mOsOk23uM0nxAcAkjJ4n-39" edge="1">
          <mxGeometry relative="1" as="geometry">
            <mxPoint x="1310" y="604" as="sourcePoint" />
            <mxPoint x="1350" y="603" as="targetPoint" />
          </mxGeometry>
        </mxCell>
        <mxCell id="mOsOk23uM0nxAcAkjJ4n-41" value="" style="endArrow=none;html=1;rounded=0;exitX=0.5;exitY=1;exitDx=0;exitDy=0;" parent="1" edge="1">
          <mxGeometry relative="1" as="geometry">
            <mxPoint x="917" y="520" as="sourcePoint" />
            <mxPoint x="917" y="570" as="targetPoint" />
          </mxGeometry>
        </mxCell>
      </root>
    </mxGraphModel>
  </diagram>
</mxfile>
